<?xml version="1.0" encoding="utf-8"?>
<!DOCTYPE svg PUBLIC "-//W3C//DTD SVG 1.1//EN" "http://www.w3.org/Graphics/SVG/1.1/DTD/svg11.dtd">
<svg version="1.1" xmlns="http://www.w3.org/2000/svg" xmlns:xlink="http://www.w3.org/1999/xlink" x="0px" y="0px" viewBox="0 0 256 256" enable-background="new 0 0 256 256" xml:space="preserve">
  <g>
    <g>
      <g>
        <path id="L" stroke="#000000" fill="#0000004f" d="M55.7,8.2c-0.8,0.4-1.6,1.1-1.8,1.6c-0.3,0.5-0.6,15.8-0.7,34.1L52.9,77h-5.3h-5.3l-0.3-28l-0.3-27.9l-1.2-1.3c-1.6-1.7-3.5-2.1-5.7-1.1c-3.5,1.4-3.4,0.7-3.4,31.2v27.4h-5.3h-5.3V61c0-18-0.1-19.1-3-20.5c-1.9-1-3.2-1-5.1,0c-3,1.6-3,0.5-3,42.7c0,43.5,0,43.8,3.5,50.6c3.4,6.8,8,11.5,14.5,14.7l3.6,1.8v47.4v47.4l1.7,1.7l1.7,1.7h17.6c19.2,0,19.8-0.1,21-2.8c0.5-1,0.6-13.1,0.6-48.9v-47.6l2-1.4c3.1-2.2,14.5-14.1,18.4-19.3c4.5-6,7.6-11.2,12.5-20.6c3.2-6.2,4.3-7.9,6.3-9.6c3-2.6,3.8-4.6,2.8-7.1c-1-2.4-3.5-3.6-6.1-3.1c-1.5,0.3-2.7,1.1-5.2,3.7c-2.8,2.9-4,4.7-7.7,12.1c-2.4,4.7-6,11.1-8,14.1l-3.6,5.4l-0.3-50.7c-0.3-55.8,0-52.2-3.3-53.7c-2-1-2.4-1-4.5,0.1c-3.3,1.6-3.3,1.1-3.3,31.3v27.2H69h-5.3V44.1V10.9L62,9.2C60.1,7.3,58,7,55.7,8.2z"/>
        <path id="R" stroke="#000000" fill="#0000004f" d="M194,9.2l-1.7,1.7v33.2v33.2H187h-5.3V50.1c0-30.2,0-29.7-3.3-31.3c-2.1-1-2.5-1-4.5,0c-3.5,1.6-3.3-1.4-3.3,54.4c0,33.6-0.2,50.2-0.5,50c-1.3-0.8-7.7-11.4-11.8-19.4c-3.8-7.5-4.9-9.2-7.8-12.1c-2.5-2.5-3.8-3.4-5.2-3.7c-3.7-0.7-6.4,1.5-6.4,5.3c0,1.8,0.3,2.4,3.2,5.2c2.6,2.6,3.8,4.4,7.1,10.9c4.6,9.1,7.6,14,11.9,19.7c3.9,5.2,14.7,16.3,18,18.5l2.5,1.7v47.6c0,34,0.1,47.9,0.6,48.8c0.3,0.7,1.3,1.6,2.2,2.1c1.4,0.7,3.6,0.8,19.3,0.7l17.8-0.1l1.5-1.7l1.5-1.6v-47.4v-47.4l3.9-2c5.1-2.6,11.1-8.5,13.8-13.5c3.8-7.3,3.6-4.9,3.8-49.5c0.1-28.4,0-40.5-0.4-41.8c-0.4-1.3-1.1-2.3-2.2-2.9c-2-1.2-3.4-1.3-5.4-0.2c-2.8,1.4-3,2.5-3,20.5v16.3h-5.3h-5.3V49.9c0-30.5,0.1-29.8-3.4-31.2c-2.2-1-4.2-0.6-5.7,1.1l-1.2,1.3L213.9,49l-0.3,28h-5.3h-5.3l-0.3-33.1c-0.2-18.2-0.5-33.6-0.7-34.1c-0.6-1.2-2.9-2.4-4.9-2.4C196.2,7.5,195.2,8,194,9.2z"/>
      </g>
    </g>
  </g>
</svg>