<?xml version="1.0" encoding="utf-8"?>
<!DOCTYPE svg PUBLIC "-//W3C//DTD SVG 1.1//EN" "http://www.w3.org/Graphics/SVG/1.1/DTD/svg11.dtd">
<svg version="1.1" xmlns="http://www.w3.org/2000/svg" xmlns:xlink="http://www.w3.org/1999/xlink" x="0px" y="0px" viewBox="0 0 256 256" enable-background="new 0 0 256 256" xml:space="preserve">
  <g>
    <g>
      <g>
        <path id="L" stroke="#000000" fill="#0000004f" d="M66.4,10.9c-2.4,1.4-2.6,3-2.3,12.9c0.7,20.7,1.8,30.9,5.6,52.6c3.3,19.4,3.7,22.5,3.7,34.1c0,11.4-0.4,13.2-4.4,21.2c-4.8,9.6-5.8,14.4-5.4,25.3c0.4,10.9,1.8,19.7,5.9,38.1c3.4,15.2,3.8,17.9,3,19.5c-0.4,0.7-1.4,3.7-2.3,6.6c-1.2,4.1-2.1,6-3.6,8.3c-1.2,1.6-2.3,3.6-2.6,4.5c-1.7,5.1,1.1,10.1,6.4,11.6c0.9,0.3,7.8,0.5,16,0.5c15.6,0,16.7-0.1,19.9-2.6c3.4-2.6,4.3-8.1,2.2-13c-1.2-2.7-3.6-13.6-3.6-15.9c0-0.8,1.5-11.6,3.3-24c5.1-34.8,5.1-35.5,5.1-55.1c0-25.6,0.5-30,5-44.5c4.6-14.9,5.1-20,5.1-52.5c0-23.6,0-24.5-0.9-26c-0.5-0.8-1.5-1.7-2.1-1.9c-0.7-0.3-11.3-0.5-26.8-0.5C69,10,67.8,10,66.4,10.9z"/>
        <path id="R" stroke="#000000" fill="#0000004f" d="M136.1,10.4c-0.5,0.2-1.3,0.9-1.8,1.4c-0.9,1-0.9,1.8-1.1,26.2c-0.2,33.2,0.2,37,5,53c4.4,14.4,4.2,12.6,4.6,38.8c0.3,21.1,0.5,24.2,1.5,32.7c1.3,10.6,3.7,27.7,5.9,42.2c0.8,5.3,1.3,10.2,1.2,10.8c-0.1,0.6-0.8,3.6-1.4,6.7c-0.6,3-1.7,6.7-2.3,8.1c-2.9,6.5-0.5,12.8,5.6,15c2.2,0.7,29.8,0.9,32.5,0.2c5.3-1.5,8.1-6.5,6.4-11.6c-0.3-0.9-1.5-2.9-2.6-4.5c-1.6-2.2-2.4-4.2-3.6-8.3c-0.9-2.9-1.9-5.9-2.3-6.6c-0.8-1.6-0.6-3.5,3-19.7c4.3-19.5,5.4-26.9,5.9-37.9c0.4-10.9-0.6-15.7-5.4-25.3c-4.1-8.1-4.4-9.7-4.3-21.8c0-11.7,0.4-15.1,3.4-32c3.7-21.2,4.8-30.9,5.6-49.7c0.6-14.3,0.4-15.6-2-17.1c-1.4-0.9-2.5-0.9-27.1-0.9C148.5,10,136.6,10.2,136.1,10.4z"/>
      </g>
    </g>
  </g>
</svg>